
        <svg xmlns="http://www.w3.org/2000/svg" xmlns:xlink="http://www.w3.org/1999/xlink" version="1.1" width="3206.896551724138" 
        height="2810.4128102243544" viewBox="0 -51.72413793103449 3206.896551724138 2810.4128102243544">
			<rect fill="#eeeeee" width="3206.896551724138" height="2810.4128102243544"/>
			<g transform="scale(10.344827586206899) translate(10, 10)">
				<defs id="SvgjsDefs1265"></defs><g id="SvgjsG1266" featureKey="symbolFeature-0" transform="matrix(1.9833399130063907,0,0,1.9833399130063907,46.0087267153406,-25.289566402154417)" fill="#ff5722"><g xmlns="http://www.w3.org/2000/svg"><path fill-rule="evenodd" clip-rule="evenodd" d="M80.11,49.695c0.003,5.951,1.481,10.771,3.303,10.771   c1.823,0,3.302-4.824,3.305-10.768c-0.003-5.951-1.479-10.773-3.303-10.773C81.591,38.926,80.107,43.748,80.11,49.695z"></path><path fill-rule="evenodd" clip-rule="evenodd" d="M39.138,14.154c-15.075,6.26-25.529,19.93-25.529,35.779   c-0.004,15.852,10.454,29.52,25.536,35.777C30.504,78.232,24.764,65,24.764,49.934S30.508,21.637,39.138,14.154z"></path><path fill-rule="evenodd" clip-rule="evenodd" d="M49.349,10.23c-7.066,0-12.803,17.854-12.803,39.857   c0,22.016,5.736,39.859,12.808,39.861c3.491-0.002,6.66-4.367,8.969-11.438c1.954,4.756,4.414,7.598,7.084,7.598   c6.367,0.002,11.532-16.066,11.527-35.883c0.005-19.816-5.156-35.887-11.521-35.879c-2.651,0-5.093,2.797-7.041,7.484   C56.057,14.668,52.871,10.234,49.349,10.23z M75.225,50.227c0.005,11.121-2.764,20.143-6.174,20.143   c-3.412,0-6.176-9.023-6.176-20.139c0-11.127,2.764-20.146,6.176-20.15C72.465,30.084,75.229,39.102,75.225,50.227z M57.792,23.318   c-2.395,6.576-3.907,16.191-3.907,26.908c-0.001,10.623,1.484,20.166,3.841,26.736c-1.15,1.559-2.418,2.424-3.748,2.424   c-5.202-0.004-9.414-13.117-9.414-29.299c0-16.174,4.212-29.293,9.407-29.293C55.333,20.797,56.626,21.701,57.792,23.318z"></path></g></g><g id="SvgjsG1267" featureKey="nameFeature-0" transform="matrix(1.0860950253142,0,0,1.0860950253142,-1.6758443464705213,169.38739869776765)" fill="#000000"><path d="M9.3164 8.594000000000001 l0 -0.019531 c4.3164 0 8.3984 1.543 11.484 4.6289 c5.625 5.625 5.625 16.582 0 22.188 c-3.0859 3.0664 -7.168 4.6094 -11.484 4.6094 l-7.7734 0 l0 -31.406 l7.7734 0 z M9.3359 33.6914 l0.019531 0 c2.5781 0 4.9609 -0.72266 6.7969 -2.5586 s2.5586 -4.2578 2.5586 -6.8555 c0 -2.5781 -0.72266 -5 -2.5781 -6.8555 c-1.8359 -1.8555 -4.2578 -2.5781 -6.8359 -2.5781 l-1.4453 0 l0 18.848 l1.4844 0 z M31.591796875 8.515999999999998 l18.887 0 l0 6.2891 l-12.578 0 l0 6.3086 l9.4336 0 l0 6.2891 l-9.4336 0 l0 6.2891 l12.578 0 l0 6.3086 l-12.578 0 l-6.3086 0 l0 -31.484 z M85.17621875 8.515999999999998 l-14.18 32.07 l-14.141 -32.07 l1.25 0 l4.1406 0 l0.25391 0 l1.0156 0 l7.4609 17.168 l7.4609 -17.168 l1.3281 0 l5.4102 0 z M91.748046875 8.515999999999998 l18.887 0 l0 6.2891 l-12.578 0 l0 6.3086 l9.4336 0 l0 6.2891 l-9.4336 0 l0 6.2891 l12.578 0 l0 6.3086 l-12.578 0 l-6.3086 0 l0 -31.484 z M125.54686875 8.594000000000001 l0 -0.019531 c4.3164 0 8.3984 1.543 11.484 4.6289 c5.625 5.625 5.625 16.582 0 22.188 c-3.0859 3.0664 -7.168 4.6094 -11.484 4.6094 l-7.7734 0 l0 -31.406 l7.7734 0 z M125.56636875 33.6914 l0.019531 0 c2.5781 0 4.9609 -0.72266 6.7969 -2.5586 s2.5586 -4.2578 2.5586 -6.8555 c0 -2.5781 -0.72266 -5 -2.5781 -6.8555 c-1.8359 -1.8555 -4.2578 -2.5781 -6.8359 -2.5781 l-1.4453 0 l0 18.848 l1.4844 0 z M155.810921875 29.59 l5.5664 0 l-2.7734 -6.543 z M153.232421875 35.1562 l-0.078125 0.23438 l-2.0508 4.5313 l-1.0938 0 l-0.25391 0 l-4.1016 0 l-1.3477 0 l14.277 -31.992 l14.316 31.992 l-1.3477 0 l-4.1016 0 l-0.27344 0 l-1.0938 0 l-2.0313 -4.5508 l-0.097656 -0.21484 l-10.723 0 z M179.4921875 7.93 l18.887 17.988 l0 -17.402 l6.3086 0 l0 32.07 l-18.887 -18.008 l0 17.422 l-6.3086 0 l0 -32.07 z M227.158515625 8.359000000000002 c4.375 0 8.125 1.5625 11.25 4.6875 s4.6875 6.875 4.6875 11.25 s-1.5625 8.125 -4.6875 11.23 s-6.875 4.668 -11.25 4.668 s-8.125 -1.5625 -11.23 -4.668 s-4.668 -6.8555 -4.668 -11.23 s1.5625 -8.125 4.668 -11.25 s6.8555 -4.6875 11.23 -4.6875 z M227.158515625 14.707 c-2.6367 0 -4.8828 0.9375 -6.7383 2.8125 s-2.793 4.1211 -2.793 6.7383 c0 2.6367 0.9375 4.8828 2.793 6.7383 s4.1016 2.793 6.7383 2.793 c2.6172 0 4.8633 -0.9375 6.7383 -2.793 s2.8125 -4.1016 2.8125 -6.7383 c0 -2.6172 -0.9375 -4.8633 -2.8125 -6.7383 s-4.1211 -2.8125 -6.7383 -2.8125 z M258.98440625 33.7891 l-0.019531 -0.039063 c1.7383 0 3.1836 -1.4453 3.1836 -3.1836 c0 -1.3477 -0.52734 -2.207 -1.6016 -2.5977 c-2.2656 -0.83984 -1.7188 -0.64453 -3.9258 -1.4063 c-2.3242 -0.80078 -4.4727 -2.3828 -5.918 -4.3555 c-0.85938 -1.1719 -1.2891 -2.6172 -1.2891 -4.3555 c0 -2.6172 0.9375 -4.8633 2.8125 -6.7383 s4.1211 -2.8125 6.7578 -2.8125 c2.6172 0 4.8633 0.9375 6.7383 2.8125 s2.8125 4.1211 2.8125 6.7383 l-6.3477 0 c0 -1.7188 -1.4453 -3.1641 -3.1641 -3.1641 c-1.7383 0 -3.1836 1.4453 -3.1836 3.1836 c0 1.1328 0.44922 1.9922 1.3672 2.5781 c1.875 1.2109 1.6602 0.97656 3.9063 1.6406 c2.4219 0.70313 4.6094 2.207 6.1133 4.1406 c0.87891 1.1328 1.3281 2.5977 1.3281 4.375 c0 2.6367 -0.9375 4.8828 -2.8125 6.7578 s-4.1211 2.8125 -6.7383 2.8125 c-2.6367 0 -4.8828 -0.9375 -6.7578 -2.8125 s-2.8125 -4.1211 -2.8125 -6.7578 l6.3672 0 c0 1.7578 1.4258 3.1836 3.1836 3.1836 z"></path></g><g id="SvgjsG1268" featureKey="sloganFeature-0" transform="matrix(0.9495304012751301,0,0,0.9495304012751301,52.430281736596356,227.4927234914957)" fill="#ff5722"><path d="M0.6 6 l1.46 0 l3.44 10.56 l3.74 -10.76 l0.18 0 l3.78 10.76 l3.42 -10.56 l1.48 0 l-4.72 14.2 l-0.18 0 l-3.86 -10.92 l-3.88 10.92 l-0.16 0 z M28.86 18.68 l0.1 1.32 l-8.48 0 l0 -14 l8.08 0 l0.1 1.32 l-6.78 0 l0 3.92 l4.74 0 l0 1.32 l-4.74 0 l0 6.12 l6.98 0 z M39.019999999999996 11.08 c1.9 0.56 3.04 2.18 3.04 4.36 c0 2.38 -1.28 4.48 -5 4.56 l-5.32 0 l0 -14 l5.52 0 c2.46 0 3.12 1.7 3.12 2.82 c0 1.02 -0.64 1.86 -1.36 2.26 z M37.12 7.26 l-3.98 0 l0 3.5 l3.56 0 c1.62 0 2.32 -0.84 2.32 -1.8 c0 -0.68 -0.38 -1.7 -1.9 -1.7 z M36.9 18.68 c2.62 0 3.74 -1.42 3.74 -3.24 c0 -1.98 -1.06 -3.5 -3.6 -3.5 l-3.9 0 l0 6.74 l3.76 0 z M56.48 6 c4.7 0 7.2 2.9 7.2 7 s-2.5 7 -7.2 7 l-4.74 0 l0 -14 l4.74 0 z M56.54 18.68 c3.8 0 5.76 -2.42 5.76 -5.68 c0 -3.28 -1.96 -5.68 -5.76 -5.68 l-3.4 0 l0 11.36 l3.4 0 z M75.1 18.68 l0.1 1.32 l-8.48 0 l0 -14 l8.08 0 l0.1 1.32 l-6.78 0 l0 3.92 l4.74 0 l0 1.32 l-4.74 0 l0 6.12 l6.98 0 z M76.78 6 l1.52 0 l4.68 11.14 l4.68 -11.14 l1.54 0 l-6.12 14.2 l-0.2 0 z M99.96000000000001 18.68 l0.1 1.32 l-8.48 0 l0 -14 l8.08 0 l0.1 1.32 l-6.78 0 l0 3.92 l4.74 0 l0 1.32 l-4.74 0 l0 6.12 l6.98 0 z M104.24000000000001 18.68 l6.18 0 l-0.1 1.32 l-7.48 0 l0 -14 l1.4 0 l0 12.68 z M119.38 20.2 c-4 0 -7.14 -3.2 -7.14 -7.2 s3.14 -7.2 7.14 -7.2 s7.16 3.2 7.16 7.2 s-3.16 7.2 -7.16 7.2 z M119.38 18.88 c3.24 0 5.72 -2.58 5.72 -5.88 s-2.48 -5.88 -5.72 -5.88 s-5.72 2.58 -5.72 5.88 s2.48 5.88 5.72 5.88 z M134.66 6 c3.28 0 4.8 2.5 4.8 5.08 c0 2.56 -1.52 5.06 -4.8 5.06 l-3.7 0 l0 3.86 l-1.4 0 l0 -14 l5.1 0 z M134.58 14.82 c2.28 0 3.46 -1.76 3.46 -3.74 c0 -2 -1.18 -3.76 -3.46 -3.76 l-3.62 0 l0 7.5 l3.62 0 z M155.85999999999999 5.800000000000001 l0.2 0 l0 14.2 l-1.38 0 l0 -10.42 l-5.36 7.34 l-0.12 0 l-5.36 -7.3 l0 10.38 l-1.38 0 l0 -14.2 l0.18 0 l6.62 8.9 z M168.02 18.68 l0.1 1.32 l-8.48 0 l0 -14 l8.08 0 l0.1 1.32 l-6.78 0 l0 3.92 l4.74 0 l0 1.32 l-4.74 0 l0 6.12 l6.98 0 z M180.76 6 l1.38 0 l0 14.2 l-0.18 0 l-9.68 -10.9 l0 10.7 l-1.38 0 l0 -14.2 l0.18 0 l9.68 10.9 l0 -10.7 z M194.38 7.32 l-4.24 0 l0 12.68 l-1.4 0 l0 -12.68 l-4.26 0 l0.1 -1.32 l9.7 0 z"></path></g>
			</g>
		</svg>
	